<mxfile host="app.diagrams.net" agent="Mozilla/5.0 (Windows NT 10.0; Win64; x64) AppleWebKit/537.36 (KHTML, like Gecko) Chrome/132.0.0.0 Safari/537.36" version="26.0.14">
  <diagram name="Page-1" id="ZpWjAPGUPTeUZyiMbzqK">
    <mxGraphModel dx="3452" dy="1305" grid="1" gridSize="10" guides="1" tooltips="1" connect="1" arrows="1" fold="1" page="1" pageScale="1" pageWidth="827" pageHeight="1169" math="0" shadow="0">
      <root>
        <mxCell id="0" />
        <mxCell id="1" parent="0" />
        <mxCell id="OK2OBcOgKMvEiMr-RDZd-8" value="" style="rounded=0;whiteSpace=wrap;html=1;fillColor=none;" parent="1" vertex="1">
          <mxGeometry x="75" y="30" width="720" height="1560" as="geometry" />
        </mxCell>
        <mxCell id="OK2OBcOgKMvEiMr-RDZd-9" value="" style="ellipse;whiteSpace=wrap;html=1;" parent="1" vertex="1">
          <mxGeometry x="320" y="190" width="210" height="140" as="geometry" />
        </mxCell>
        <mxCell id="OK2OBcOgKMvEiMr-RDZd-16" value="&lt;font style=&quot;font-size: 28px;&quot;&gt;Registers&lt;/font&gt;" style="text;html=1;align=left;verticalAlign=middle;whiteSpace=wrap;rounded=0;" parent="1" vertex="1">
          <mxGeometry x="367" y="245" width="116" height="30" as="geometry" />
        </mxCell>
        <mxCell id="OK2OBcOgKMvEiMr-RDZd-17" value="" style="ellipse;whiteSpace=wrap;html=1;" parent="1" vertex="1">
          <mxGeometry x="320" y="360" width="210" height="140" as="geometry" />
        </mxCell>
        <mxCell id="OK2OBcOgKMvEiMr-RDZd-18" value="&lt;font style=&quot;font-size: 28px;&quot;&gt;Books Appoinment&lt;/font&gt;" style="text;html=1;align=center;verticalAlign=middle;whiteSpace=wrap;rounded=0;" parent="1" vertex="1">
          <mxGeometry x="358" y="390" width="154" height="80" as="geometry" />
        </mxCell>
        <mxCell id="OK2OBcOgKMvEiMr-RDZd-20" value="" style="ellipse;whiteSpace=wrap;html=1;" parent="1" vertex="1">
          <mxGeometry x="320" y="560" width="210" height="140" as="geometry" />
        </mxCell>
        <mxCell id="OK2OBcOgKMvEiMr-RDZd-21" value="&lt;font style=&quot;font-size: 28px;&quot;&gt;Set Avaibility&lt;/font&gt;" style="text;html=1;align=center;verticalAlign=middle;whiteSpace=wrap;rounded=0;" parent="1" vertex="1">
          <mxGeometry x="348" y="590" width="154" height="80" as="geometry" />
        </mxCell>
        <mxCell id="OK2OBcOgKMvEiMr-RDZd-22" value="" style="ellipse;whiteSpace=wrap;html=1;" parent="1" vertex="1">
          <mxGeometry x="320" y="760" width="210" height="140" as="geometry" />
        </mxCell>
        <mxCell id="OK2OBcOgKMvEiMr-RDZd-23" value="&lt;font style=&quot;font-size: 28px;&quot;&gt;Provides Prescription&lt;/font&gt;" style="text;html=1;align=center;verticalAlign=middle;whiteSpace=wrap;rounded=0;" parent="1" vertex="1">
          <mxGeometry x="348" y="790" width="154" height="80" as="geometry" />
        </mxCell>
        <mxCell id="OK2OBcOgKMvEiMr-RDZd-26" value="" style="ellipse;whiteSpace=wrap;html=1;" parent="1" vertex="1">
          <mxGeometry x="320" y="960" width="210" height="140" as="geometry" />
        </mxCell>
        <mxCell id="OK2OBcOgKMvEiMr-RDZd-27" value="&lt;font style=&quot;font-size: 28px;&quot;&gt;Access Medical History&lt;/font&gt;" style="text;html=1;align=center;verticalAlign=middle;whiteSpace=wrap;rounded=0;" parent="1" vertex="1">
          <mxGeometry x="348" y="990" width="154" height="80" as="geometry" />
        </mxCell>
        <mxCell id="OK2OBcOgKMvEiMr-RDZd-30" value="" style="ellipse;whiteSpace=wrap;html=1;" parent="1" vertex="1">
          <mxGeometry x="320" y="1150" width="210" height="140" as="geometry" />
        </mxCell>
        <mxCell id="OK2OBcOgKMvEiMr-RDZd-32" value="" style="ellipse;whiteSpace=wrap;html=1;" parent="1" vertex="1">
          <mxGeometry x="320" y="1330" width="210" height="140" as="geometry" />
        </mxCell>
        <mxCell id="OK2OBcOgKMvEiMr-RDZd-33" value="&lt;font style=&quot;font-size: 28px;&quot;&gt;Access Prescription&lt;/font&gt;" style="text;html=1;align=center;verticalAlign=middle;whiteSpace=wrap;rounded=0;" parent="1" vertex="1">
          <mxGeometry x="348" y="1180" width="154" height="80" as="geometry" />
        </mxCell>
        <mxCell id="OK2OBcOgKMvEiMr-RDZd-37" value="&lt;font style=&quot;font-size: 20px;&quot;&gt;Patient&lt;/font&gt;" style="shape=umlActor;html=1;verticalLabelPosition=bottom;verticalAlign=top;align=center;" parent="1" vertex="1">
          <mxGeometry x="-620" y="845" width="60" height="70" as="geometry" />
        </mxCell>
        <mxCell id="OK2OBcOgKMvEiMr-RDZd-39" value="" style="shape=umlActor;html=1;verticalLabelPosition=bottom;verticalAlign=top;align=center;" parent="1" vertex="1">
          <mxGeometry x="1540" y="450" width="60" height="70" as="geometry" />
        </mxCell>
        <mxCell id="OK2OBcOgKMvEiMr-RDZd-40" value="" style="shape=umlActor;html=1;verticalLabelPosition=bottom;verticalAlign=top;align=center;" parent="1" vertex="1">
          <mxGeometry x="1540" y="820" width="60" height="70" as="geometry" />
        </mxCell>
        <mxCell id="OK2OBcOgKMvEiMr-RDZd-41" value="" style="shape=umlActor;html=1;verticalLabelPosition=bottom;verticalAlign=top;align=center;" parent="1" vertex="1">
          <mxGeometry x="1540" y="1200" width="60" height="70" as="geometry" />
        </mxCell>
        <mxCell id="OK2OBcOgKMvEiMr-RDZd-42" value="&lt;font style=&quot;font-size: 20px;&quot;&gt;Doctor&lt;/font&gt;" style="text;html=1;align=center;verticalAlign=middle;whiteSpace=wrap;rounded=0;" parent="1" vertex="1">
          <mxGeometry x="1540" y="530" width="60" height="25" as="geometry" />
        </mxCell>
        <mxCell id="OK2OBcOgKMvEiMr-RDZd-43" value="&lt;font style=&quot;font-size: 20px;&quot;&gt;Nurse&lt;/font&gt;" style="text;html=1;align=center;verticalAlign=middle;whiteSpace=wrap;rounded=0;" parent="1" vertex="1">
          <mxGeometry x="1540" y="900" width="60" height="30" as="geometry" />
        </mxCell>
        <mxCell id="OK2OBcOgKMvEiMr-RDZd-44" value="&lt;font style=&quot;font-size: 20px;&quot;&gt;Pharmacy&lt;/font&gt;" style="text;html=1;align=center;verticalAlign=middle;whiteSpace=wrap;rounded=0;" parent="1" vertex="1">
          <mxGeometry x="1540" y="1280" width="90" height="30" as="geometry" />
        </mxCell>
        <mxCell id="OK2OBcOgKMvEiMr-RDZd-45" value="" style="endArrow=none;html=1;rounded=0;entryX=0;entryY=0.5;entryDx=0;entryDy=0;" parent="1" target="OK2OBcOgKMvEiMr-RDZd-9" edge="1">
          <mxGeometry width="50" height="50" relative="1" as="geometry">
            <mxPoint x="-540" y="910" as="sourcePoint" />
            <mxPoint x="140" y="330" as="targetPoint" />
          </mxGeometry>
        </mxCell>
        <mxCell id="OK2OBcOgKMvEiMr-RDZd-47" value="" style="endArrow=none;html=1;rounded=0;entryX=0;entryY=0.5;entryDx=0;entryDy=0;" parent="1" target="OK2OBcOgKMvEiMr-RDZd-17" edge="1">
          <mxGeometry width="50" height="50" relative="1" as="geometry">
            <mxPoint x="-540" y="910" as="sourcePoint" />
            <mxPoint x="348" y="351.5" as="targetPoint" />
          </mxGeometry>
        </mxCell>
        <mxCell id="OK2OBcOgKMvEiMr-RDZd-49" value="" style="endArrow=none;html=1;rounded=0;entryX=0;entryY=0.5;entryDx=0;entryDy=0;" parent="1" target="OK2OBcOgKMvEiMr-RDZd-32" edge="1">
          <mxGeometry width="50" height="50" relative="1" as="geometry">
            <mxPoint x="-540" y="910" as="sourcePoint" />
            <mxPoint x="288.19" y="1073.25" as="targetPoint" />
          </mxGeometry>
        </mxCell>
        <mxCell id="OK2OBcOgKMvEiMr-RDZd-50" value="" style="endArrow=none;html=1;rounded=0;" parent="1" edge="1">
          <mxGeometry width="50" height="50" relative="1" as="geometry">
            <mxPoint x="530" y="630" as="sourcePoint" />
            <mxPoint x="1530" y="490" as="targetPoint" />
          </mxGeometry>
        </mxCell>
        <mxCell id="OK2OBcOgKMvEiMr-RDZd-51" value="" style="endArrow=none;html=1;rounded=0;exitX=0.983;exitY=0.365;exitDx=0;exitDy=0;exitPerimeter=0;" parent="1" source="OK2OBcOgKMvEiMr-RDZd-22" edge="1">
          <mxGeometry width="50" height="50" relative="1" as="geometry">
            <mxPoint x="530" y="810" as="sourcePoint" />
            <mxPoint x="1530" y="490" as="targetPoint" />
          </mxGeometry>
        </mxCell>
        <mxCell id="OK2OBcOgKMvEiMr-RDZd-52" value="" style="endArrow=none;html=1;rounded=0;exitX=0.986;exitY=0.376;exitDx=0;exitDy=0;exitPerimeter=0;" parent="1" source="OK2OBcOgKMvEiMr-RDZd-26" edge="1">
          <mxGeometry width="50" height="50" relative="1" as="geometry">
            <mxPoint x="530" y="1180" as="sourcePoint" />
            <mxPoint x="1530" y="490" as="targetPoint" />
          </mxGeometry>
        </mxCell>
        <mxCell id="OK2OBcOgKMvEiMr-RDZd-53" value="" style="endArrow=none;html=1;rounded=0;entryX=0;entryY=0.5;entryDx=0;entryDy=0;" parent="1" edge="1" target="OK2OBcOgKMvEiMr-RDZd-30">
          <mxGeometry width="50" height="50" relative="1" as="geometry">
            <mxPoint x="-540" y="910" as="sourcePoint" />
            <mxPoint x="327" y="1360.5" as="targetPoint" />
          </mxGeometry>
        </mxCell>
        <mxCell id="OK2OBcOgKMvEiMr-RDZd-54" value="" style="endArrow=none;html=1;rounded=0;" parent="1" target="OK2OBcOgKMvEiMr-RDZd-44" edge="1">
          <mxGeometry width="50" height="50" relative="1" as="geometry">
            <mxPoint x="530" y="1230" as="sourcePoint" />
            <mxPoint x="1523" y="853.5" as="targetPoint" />
          </mxGeometry>
        </mxCell>
        <mxCell id="OK2OBcOgKMvEiMr-RDZd-55" value="" style="endArrow=none;html=1;rounded=0;exitX=0.981;exitY=0.636;exitDx=0;exitDy=0;exitPerimeter=0;" parent="1" source="OK2OBcOgKMvEiMr-RDZd-20" edge="1">
          <mxGeometry width="50" height="50" relative="1" as="geometry">
            <mxPoint x="540" y="1020" as="sourcePoint" />
            <mxPoint x="1540" y="880" as="targetPoint" />
          </mxGeometry>
        </mxCell>
        <mxCell id="OK2OBcOgKMvEiMr-RDZd-56" value="&lt;b&gt;An Automated System For Local Gps&lt;/b&gt;" style="text;html=1;align=center;verticalAlign=middle;whiteSpace=wrap;rounded=0;fontSize=20;" parent="1" vertex="1">
          <mxGeometry x="200" y="70" width="500" height="30" as="geometry" />
        </mxCell>
        <mxCell id="59RilD-2cVBZHocLFVtj-5" value="&lt;font style=&quot;font-size: 28px;&quot;&gt;Buy Medicine&lt;/font&gt;" style="text;html=1;align=center;verticalAlign=middle;whiteSpace=wrap;rounded=0;" vertex="1" parent="1">
          <mxGeometry x="348" y="1360" width="154" height="80" as="geometry" />
        </mxCell>
        <mxCell id="59RilD-2cVBZHocLFVtj-6" value="" style="endArrow=none;html=1;rounded=0;exitX=0.981;exitY=0.636;exitDx=0;exitDy=0;exitPerimeter=0;" edge="1" parent="1">
          <mxGeometry width="50" height="50" relative="1" as="geometry">
            <mxPoint x="526" y="860" as="sourcePoint" />
            <mxPoint x="1540" y="880" as="targetPoint" />
          </mxGeometry>
        </mxCell>
      </root>
    </mxGraphModel>
  </diagram>
</mxfile>
